<?xml version="1.0" encoding="UTF-8" standalone="no"?>
<!DOCTYPE svg PUBLIC "-//W3C//DTD SVG 1.1//EN"
 "http://www.w3.org/Graphics/SVG/1.1/DTD/svg11.dtd">
<!-- Generated by graphviz version 2.38.0 (20140413.2041)
 -->
<!-- Title: %3 Pages: 1 -->
<svg width="3149pt" height="476pt"
 viewBox="0.00 0.00 3149.31 476.00" xmlns="http://www.w3.org/2000/svg" xmlns:xlink="http://www.w3.org/1999/xlink">
<g id="graph0" class="graph" transform="scale(1 1) rotate(0) translate(4 472)">
<title>%3</title>
<polygon fill="white" stroke="none" points="-4,4 -4,-472 3145.31,-472 3145.31,4 -4,4"/>
<!-- Ljp/naver/line/android/model/x&#45;&gt;a -->
<g id="node1" class="node"><title>Ljp/naver/line/android/model/x&#45;&gt;a</title>
<ellipse fill="none" stroke="black" cx="1308.78" cy="-450" rx="133.776" ry="18"/>
<text text-anchor="middle" x="1308.78" y="-446.3" font-family="Times,serif" font-size="14.00">Ljp/naver/line/android/model/x&#45;&gt;a</text>
</g>
<!-- Lfvr&#45;&gt;a -->
<g id="node2" class="node"><title>Lfvr&#45;&gt;a</title>
<ellipse fill="none" stroke="black" cx="971.78" cy="-162" rx="38.1938" ry="18"/>
<text text-anchor="middle" x="971.78" y="-158.3" font-family="Times,serif" font-size="14.00">Lfvr&#45;&gt;a</text>
</g>
<!-- Ljp/naver/line/android/model/x&#45;&gt;a&#45;&#45;Lfvr&#45;&gt;a -->
<g id="edge1" class="edge"><title>Ljp/naver/line/android/model/x&#45;&gt;a&#45;&#45;Lfvr&#45;&gt;a</title>
<path fill="none" stroke="black" d="M1176.72,-446.937C1005.48,-442.868 724.803,-430.897 692.78,-396 602.644,-297.776 851.252,-202.999 940.922,-172.866"/>
</g>
<!-- Lfvr&#45;&gt;f -->
<g id="node3" class="node"><title>Lfvr&#45;&gt;f</title>
<ellipse fill="none" stroke="black" cx="1423.78" cy="-378" rx="37.8943" ry="18"/>
<text text-anchor="middle" x="1423.78" y="-374.3" font-family="Times,serif" font-size="14.00">Lfvr&#45;&gt;f</text>
</g>
<!-- Ljp/naver/line/android/model/x&#45;&gt;a&#45;&#45;Lfvr&#45;&gt;f -->
<g id="edge2" class="edge"><title>Ljp/naver/line/android/model/x&#45;&gt;a&#45;&#45;Lfvr&#45;&gt;f</title>
<path fill="none" stroke="black" d="M1336.33,-432.233C1356.26,-420.099 1382.86,-403.909 1401.47,-392.581"/>
</g>
<!-- Lgjx&#45;&gt;a -->
<g id="node19" class="node"><title>Lgjx&#45;&gt;a</title>
<ellipse fill="none" stroke="black" cx="1073.78" cy="-234" rx="39.7935" ry="18"/>
<text text-anchor="middle" x="1073.78" y="-230.3" font-family="Times,serif" font-size="14.00">Lgjx&#45;&gt;a</text>
</g>
<!-- Ljp/naver/line/android/model/x&#45;&gt;a&#45;&#45;Lgjx&#45;&gt;a -->
<g id="edge27" class="edge"><title>Ljp/naver/line/android/model/x&#45;&gt;a&#45;&#45;Lgjx&#45;&gt;a</title>
<path fill="none" stroke="black" d="M1309.82,-431.73C1310.05,-412.001 1307.36,-379.886 1289.78,-360 1257.38,-323.354 1228.65,-347.551 1185.78,-324 1148.34,-303.432 1110.65,-270.326 1089.95,-250.815"/>
</g>
<!-- Ljp/naver/line/android/activity/moremenu/MoreCategoryListActivity&#45;&gt;onCreate -->
<g id="node23" class="node"><title>Ljp/naver/line/android/activity/moremenu/MoreCategoryListActivity&#45;&gt;onCreate</title>
<ellipse fill="none" stroke="black" cx="2006.78" cy="-234" rx="295.948" ry="18"/>
<text text-anchor="middle" x="2006.78" y="-230.3" font-family="Times,serif" font-size="14.00">Ljp/naver/line/android/activity/moremenu/MoreCategoryListActivity&#45;&gt;onCreate</text>
</g>
<!-- Ljp/naver/line/android/model/x&#45;&gt;a&#45;&#45;Ljp/naver/line/android/activity/moremenu/MoreCategoryListActivity&#45;&gt;onCreate -->
<g id="edge28" class="edge"><title>Ljp/naver/line/android/model/x&#45;&gt;a&#45;&#45;Ljp/naver/line/android/activity/moremenu/MoreCategoryListActivity&#45;&gt;onCreate</title>
<path fill="none" stroke="black" d="M1359.82,-433.351C1487.58,-394.183 1820.28,-292.179 1951.97,-251.805"/>
</g>
<!-- Ljp/naver/line/android/activity/moremenu/w&#45;&gt;c -->
<g id="node24" class="node"><title>Ljp/naver/line/android/activity/moremenu/w&#45;&gt;c</title>
<ellipse fill="none" stroke="black" cx="2500.78" cy="-234" rx="180.868" ry="18"/>
<text text-anchor="middle" x="2500.78" y="-230.3" font-family="Times,serif" font-size="14.00">Ljp/naver/line/android/activity/moremenu/w&#45;&gt;c</text>
</g>
<!-- Ljp/naver/line/android/model/x&#45;&gt;a&#45;&#45;Ljp/naver/line/android/activity/moremenu/w&#45;&gt;c -->
<g id="edge29" class="edge"><title>Ljp/naver/line/android/model/x&#45;&gt;a&#45;&#45;Ljp/naver/line/android/activity/moremenu/w&#45;&gt;c</title>
<path fill="none" stroke="black" d="M1385.61,-435.206C1598.77,-396.938 2196.34,-289.657 2417.28,-249.991"/>
</g>
<!-- Ljp/naver/line/android/model/ac&#45;&gt;b -->
<g id="node25" class="node"><title>Ljp/naver/line/android/model/ac&#45;&gt;b</title>
<ellipse fill="none" stroke="black" cx="1332.78" cy="-306" rx="137.576" ry="18"/>
<text text-anchor="middle" x="1332.78" y="-302.3" font-family="Times,serif" font-size="14.00">Ljp/naver/line/android/model/ac&#45;&gt;b</text>
</g>
<!-- Ljp/naver/line/android/model/x&#45;&gt;a&#45;&#45;Ljp/naver/line/android/model/ac&#45;&gt;b -->
<g id="edge30" class="edge"><title>Ljp/naver/line/android/model/x&#45;&gt;a&#45;&#45;Ljp/naver/line/android/model/ac&#45;&gt;b</title>
<path fill="none" stroke="black" d="M1313.96,-431.959C1316.93,-421.638 1320.5,-408.161 1322.78,-396 1327.41,-371.241 1330.19,-342.178 1331.6,-324.172"/>
</g>
<!-- Ljp/naver/line/android/model/ag&#45;&gt;c -->
<g id="node26" class="node"><title>Ljp/naver/line/android/model/ag&#45;&gt;c</title>
<ellipse fill="none" stroke="black" cx="867.78" cy="-306" rx="137.576" ry="18"/>
<text text-anchor="middle" x="867.78" y="-302.3" font-family="Times,serif" font-size="14.00">Ljp/naver/line/android/model/ag&#45;&gt;c</text>
</g>
<!-- Ljp/naver/line/android/model/x&#45;&gt;a&#45;&#45;Ljp/naver/line/android/model/ag&#45;&gt;c -->
<g id="edge32" class="edge"><title>Ljp/naver/line/android/model/x&#45;&gt;a&#45;&#45;Ljp/naver/line/android/model/ag&#45;&gt;c</title>
<path fill="none" stroke="black" d="M1177,-446.669C1009.15,-442.31 736.946,-430.025 705.78,-396 672.726,-359.913 736.54,-335.238 793.543,-321.184"/>
</g>
<!-- Ljp/naver/line/android/model/ag&#45;&gt;d -->
<g id="node27" class="node"><title>Ljp/naver/line/android/model/ag&#45;&gt;d</title>
<ellipse fill="none" stroke="black" cx="852.78" cy="-378" rx="137.576" ry="18"/>
<text text-anchor="middle" x="852.78" y="-374.3" font-family="Times,serif" font-size="14.00">Ljp/naver/line/android/model/ag&#45;&gt;d</text>
</g>
<!-- Ljp/naver/line/android/model/x&#45;&gt;a&#45;&#45;Ljp/naver/line/android/model/ag&#45;&gt;d -->
<g id="edge34" class="edge"><title>Ljp/naver/line/android/model/x&#45;&gt;a&#45;&#45;Ljp/naver/line/android/model/ag&#45;&gt;d</title>
<path fill="none" stroke="black" d="M1224.08,-435.998C1142.69,-423.504 1020.33,-404.72 938.575,-392.17"/>
</g>
<!-- Ljp/naver/line/android/model/aj&#45;&gt;b -->
<g id="node28" class="node"><title>Ljp/naver/line/android/model/aj&#45;&gt;b</title>
<ellipse fill="none" stroke="black" cx="1144.78" cy="-378" rx="135.676" ry="18"/>
<text text-anchor="middle" x="1144.78" y="-374.3" font-family="Times,serif" font-size="14.00">Ljp/naver/line/android/model/aj&#45;&gt;b</text>
</g>
<!-- Ljp/naver/line/android/model/x&#45;&gt;a&#45;&#45;Ljp/naver/line/android/model/aj&#45;&gt;b -->
<g id="edge36" class="edge"><title>Ljp/naver/line/android/model/x&#45;&gt;a&#45;&#45;Ljp/naver/line/android/model/aj&#45;&gt;b</title>
<path fill="none" stroke="black" d="M1270.33,-432.588C1244.01,-421.354 1209.26,-406.521 1182.99,-395.309"/>
</g>
<!-- Lfvr&#45;&gt;b -->
<g id="node4" class="node"><title>Lfvr&#45;&gt;b</title>
<ellipse fill="none" stroke="black" cx="1527.78" cy="-306" rx="38.9931" ry="18"/>
<text text-anchor="middle" x="1527.78" y="-302.3" font-family="Times,serif" font-size="14.00">Lfvr&#45;&gt;b</text>
</g>
<!-- Lfvr&#45;&gt;f&#45;&#45;Lfvr&#45;&gt;b -->
<g id="edge3" class="edge"><title>Lfvr&#45;&gt;f&#45;&#45;Lfvr&#45;&gt;b</title>
<path fill="none" stroke="black" d="M1444.83,-362.834C1462.75,-350.77 1488.39,-333.512 1506.41,-321.385"/>
</g>
<!-- Lfvr&#45;&gt;b&#45;&#45;Lfvr&#45;&gt;a -->
<g id="edge4" class="edge"><title>Lfvr&#45;&gt;b&#45;&#45;Lfvr&#45;&gt;a</title>
<path fill="none" stroke="black" d="M1499.16,-293.667C1492.86,-291.508 1486.15,-289.468 1479.78,-288 1340.74,-255.976 1290.15,-312.175 1160.78,-252 1139.69,-242.188 1142.66,-228.077 1122.78,-216 1080.97,-190.609 1064.89,-196.319 1018.78,-180 1013.05,-177.974 1006.95,-175.784 1001.09,-173.673"/>
</g>
<!-- Lfvr&#45;&gt;d -->
<g id="node5" class="node"><title>Lfvr&#45;&gt;d</title>
<ellipse fill="none" stroke="black" cx="1208.78" cy="-234" rx="38.9931" ry="18"/>
<text text-anchor="middle" x="1208.78" y="-230.3" font-family="Times,serif" font-size="14.00">Lfvr&#45;&gt;d</text>
</g>
<!-- Lfvr&#45;&gt;b&#45;&#45;Lfvr&#45;&gt;d -->
<g id="edge5" class="edge"><title>Lfvr&#45;&gt;b&#45;&#45;Lfvr&#45;&gt;d</title>
<path fill="none" stroke="black" d="M1498.85,-293.808C1492.62,-291.667 1486.03,-289.598 1479.78,-288 1382.51,-263.141 1354.05,-276.859 1256.78,-252 1250.53,-250.402 1243.94,-248.333 1237.71,-246.192"/>
</g>
<!-- Lfvr&#45;&gt;b&#45;&#45;Lgjx&#45;&gt;a -->
<g id="edge20" class="edge"><title>Lfvr&#45;&gt;b&#45;&#45;Lgjx&#45;&gt;a</title>
<path fill="none" stroke="black" d="M1499.17,-293.616C1492.87,-291.461 1486.16,-289.435 1479.78,-288 1326.35,-253.505 1281.8,-283.775 1127.78,-252 1119.98,-250.391 1111.71,-248.099 1104.05,-245.716"/>
</g>
<!-- Lhzi&#45;&gt;a -->
<g id="node20" class="node"><title>Lhzi&#45;&gt;a</title>
<ellipse fill="none" stroke="black" cx="1304.78" cy="-234" rx="38.9931" ry="18"/>
<text text-anchor="middle" x="1304.78" y="-230.3" font-family="Times,serif" font-size="14.00">Lhzi&#45;&gt;a</text>
</g>
<!-- Lfvr&#45;&gt;b&#45;&#45;Lhzi&#45;&gt;a -->
<g id="edge22" class="edge"><title>Lfvr&#45;&gt;b&#45;&#45;Lhzi&#45;&gt;a</title>
<path fill="none" stroke="black" d="M1498.18,-294.182C1492.12,-292.06 1485.76,-289.905 1479.78,-288 1423.88,-270.198 1408.68,-269.802 1352.78,-252 1346.8,-250.095 1340.44,-247.94 1334.38,-245.818"/>
</g>
<!-- Ljp/naver/line/android/activity/main/u&#45;&gt;run -->
<g id="node21" class="node"><title>Ljp/naver/line/android/activity/main/u&#45;&gt;run</title>
<ellipse fill="none" stroke="black" cx="1527.78" cy="-234" rx="165.971" ry="18"/>
<text text-anchor="middle" x="1527.78" y="-230.3" font-family="Times,serif" font-size="14.00">Ljp/naver/line/android/activity/main/u&#45;&gt;run</text>
</g>
<!-- Lfvr&#45;&gt;b&#45;&#45;Ljp/naver/line/android/activity/main/u&#45;&gt;run -->
<g id="edge23" class="edge"><title>Lfvr&#45;&gt;b&#45;&#45;Ljp/naver/line/android/activity/main/u&#45;&gt;run</title>
<path fill="none" stroke="black" d="M1527.78,-287.697C1527.78,-276.846 1527.78,-262.917 1527.78,-252.104"/>
</g>
<!-- Lfvr&#45;&gt;b&#45;&#45;Ljp/naver/line/android/activity/moremenu/MoreCategoryListActivity&#45;&gt;onCreate -->
<g id="edge25" class="edge"><title>Lfvr&#45;&gt;b&#45;&#45;Ljp/naver/line/android/activity/moremenu/MoreCategoryListActivity&#45;&gt;onCreate</title>
<path fill="none" stroke="black" d="M1564.57,-299.623C1635.22,-289.299 1792.32,-266.341 1898.92,-250.762"/>
</g>
<!-- Lfvr&#45;&gt;b&#45;&#45;Ljp/naver/line/android/activity/moremenu/w&#45;&gt;c -->
<g id="edge26" class="edge"><title>Lfvr&#45;&gt;b&#45;&#45;Ljp/naver/line/android/activity/moremenu/w&#45;&gt;c</title>
<path fill="none" stroke="black" d="M1566.14,-302.709C1679.94,-295.85 2025.5,-274.549 2311.78,-252 2331.81,-250.422 2353.03,-248.631 2373.73,-246.818"/>
</g>
<!-- Lfvr&#45;&gt;d&#45;&#45;Lfvr&#45;&gt;a -->
<g id="edge6" class="edge"><title>Lfvr&#45;&gt;d&#45;&#45;Lfvr&#45;&gt;a</title>
<path fill="none" stroke="black" d="M1178.04,-222.833C1170.76,-220.512 1163.02,-218.11 1155.78,-216 1095.34,-198.379 1078.89,-198.726 1018.78,-180 1012.9,-178.168 1006.66,-176.044 1000.72,-173.932"/>
</g>
<!-- Lgek&#45;&gt;a -->
<g id="node6" class="node"><title>Lgek&#45;&gt;a</title>
<ellipse fill="none" stroke="black" cx="1068.78" cy="-162" rx="40.8928" ry="18"/>
<text text-anchor="middle" x="1068.78" y="-158.3" font-family="Times,serif" font-size="14.00">Lgek&#45;&gt;a</text>
</g>
<!-- Lfvr&#45;&gt;d&#45;&#45;Lgek&#45;&gt;a -->
<g id="edge7" class="edge"><title>Lfvr&#45;&gt;d&#45;&#45;Lgek&#45;&gt;a</title>
<path fill="none" stroke="black" d="M1183.1,-220.161C1158,-207.61 1119.98,-188.599 1094.77,-175.995"/>
</g>
<!-- Ljp/naver/line/android/activity/moremenu/an&#45;&gt;a -->
<g id="node12" class="node"><title>Ljp/naver/line/android/activity/moremenu/an&#45;&gt;a</title>
<ellipse fill="none" stroke="black" cx="1310.78" cy="-162" rx="182.768" ry="18"/>
<text text-anchor="middle" x="1310.78" y="-158.3" font-family="Times,serif" font-size="14.00">Ljp/naver/line/android/activity/moremenu/an&#45;&gt;a</text>
</g>
<!-- Lfvr&#45;&gt;d&#45;&#45;Ljp/naver/line/android/activity/moremenu/an&#45;&gt;a -->
<g id="edge13" class="edge"><title>Lfvr&#45;&gt;d&#45;&#45;Ljp/naver/line/android/activity/moremenu/an&#45;&gt;a</title>
<path fill="none" stroke="black" d="M1229.91,-218.496C1246.25,-207.283 1268.91,-191.737 1286.08,-179.951"/>
</g>
<!-- Ljp/naver/line/android/activity/moremenu/MoreCategoryListActivity&#45;&gt;a -->
<g id="node13" class="node"><title>Ljp/naver/line/android/activity/moremenu/MoreCategoryListActivity&#45;&gt;a</title>
<ellipse fill="none" stroke="black" cx="1779.78" cy="-162" rx="268.352" ry="18"/>
<text text-anchor="middle" x="1779.78" y="-158.3" font-family="Times,serif" font-size="14.00">Ljp/naver/line/android/activity/moremenu/MoreCategoryListActivity&#45;&gt;a</text>
</g>
<!-- Lfvr&#45;&gt;d&#45;&#45;Ljp/naver/line/android/activity/moremenu/MoreCategoryListActivity&#45;&gt;a -->
<g id="edge14" class="edge"><title>Lfvr&#45;&gt;d&#45;&#45;Ljp/naver/line/android/activity/moremenu/MoreCategoryListActivity&#45;&gt;a</title>
<path fill="none" stroke="black" d="M1237.39,-221.612C1243.69,-219.457 1250.4,-217.432 1256.78,-216 1321.73,-201.429 1482.48,-186.255 1608.76,-175.896"/>
</g>
<!-- Lgem&#45;&gt;a -->
<g id="node7" class="node"><title>Lgem&#45;&gt;a</title>
<ellipse fill="none" stroke="black" cx="1099.78" cy="-90" rx="44.393" ry="18"/>
<text text-anchor="middle" x="1099.78" y="-86.3" font-family="Times,serif" font-size="14.00">Lgem&#45;&gt;a</text>
</g>
<!-- Lgek&#45;&gt;a&#45;&#45;Lgem&#45;&gt;a -->
<g id="edge8" class="edge"><title>Lgek&#45;&gt;a&#45;&#45;Lgem&#45;&gt;a</title>
<path fill="none" stroke="black" d="M1076.28,-144.055C1081.16,-133.049 1087.48,-118.764 1092.34,-107.789"/>
</g>
<!-- Ljp/naver/line/android/activity/exception/c&#45;&gt;a -->
<g id="node8" class="node"><title>Ljp/naver/line/android/activity/exception/c&#45;&gt;a</title>
<ellipse fill="none" stroke="black" cx="228.78" cy="-90" rx="173.569" ry="18"/>
<text text-anchor="middle" x="228.78" y="-86.3" font-family="Times,serif" font-size="14.00">Ljp/naver/line/android/activity/exception/c&#45;&gt;a</text>
</g>
<!-- Lgek&#45;&gt;a&#45;&#45;Ljp/naver/line/android/activity/exception/c&#45;&gt;a -->
<g id="edge9" class="edge"><title>Lgek&#45;&gt;a&#45;&#45;Ljp/naver/line/android/activity/exception/c&#45;&gt;a</title>
<path fill="none" stroke="black" d="M1039.26,-149.505C1032.61,-147.328 1025.53,-145.322 1018.78,-144 753.133,-91.9626 680.691,-128.591 410.78,-108 391.161,-106.503 370.37,-104.735 350.125,-102.913"/>
</g>
<!-- Ljp/naver/line/android/activity/setting/fragment/SettingsDeleteAccountFragment&#45;&gt;c -->
<g id="node10" class="node"><title>Ljp/naver/line/android/activity/setting/fragment/SettingsDeleteAccountFragment&#45;&gt;c</title>
<ellipse fill="none" stroke="black" cx="728.78" cy="-90" rx="308.945" ry="18"/>
<text text-anchor="middle" x="728.78" y="-86.3" font-family="Times,serif" font-size="14.00">Ljp/naver/line/android/activity/setting/fragment/SettingsDeleteAccountFragment&#45;&gt;c</text>
</g>
<!-- Lgek&#45;&gt;a&#45;&#45;Ljp/naver/line/android/activity/setting/fragment/SettingsDeleteAccountFragment&#45;&gt;c -->
<g id="edge11" class="edge"><title>Lgek&#45;&gt;a&#45;&#45;Ljp/naver/line/android/activity/setting/fragment/SettingsDeleteAccountFragment&#45;&gt;c</title>
<path fill="none" stroke="black" d="M1038.32,-149.851C1031.92,-147.732 1025.17,-145.66 1018.78,-144 959.337,-128.552 891.901,-115.941 837.027,-106.902"/>
</g>
<!-- Ljp/naver/line/android/activity/exception/c&#45;&gt;doInBackground -->
<g id="node9" class="node"><title>Ljp/naver/line/android/activity/exception/c&#45;&gt;doInBackground</title>
<ellipse fill="none" stroke="black" cx="228.78" cy="-18" rx="228.56" ry="18"/>
<text text-anchor="middle" x="228.78" y="-14.3" font-family="Times,serif" font-size="14.00">Ljp/naver/line/android/activity/exception/c&#45;&gt;doInBackground</text>
</g>
<!-- Ljp/naver/line/android/activity/exception/c&#45;&gt;a&#45;&#45;Ljp/naver/line/android/activity/exception/c&#45;&gt;doInBackground -->
<g id="edge10" class="edge"><title>Ljp/naver/line/android/activity/exception/c&#45;&gt;a&#45;&#45;Ljp/naver/line/android/activity/exception/c&#45;&gt;doInBackground</title>
<path fill="none" stroke="black" d="M228.78,-71.6966C228.78,-60.8463 228.78,-46.9167 228.78,-36.1043"/>
</g>
<!-- Ljp/naver/line/android/activity/setting/fragment/bx&#45;&gt;onClick -->
<g id="node11" class="node"><title>Ljp/naver/line/android/activity/setting/fragment/bx&#45;&gt;onClick</title>
<ellipse fill="none" stroke="black" cx="728.78" cy="-18" rx="226.36" ry="18"/>
<text text-anchor="middle" x="728.78" y="-14.3" font-family="Times,serif" font-size="14.00">Ljp/naver/line/android/activity/setting/fragment/bx&#45;&gt;onClick</text>
</g>
<!-- Ljp/naver/line/android/activity/setting/fragment/SettingsDeleteAccountFragment&#45;&gt;c&#45;&#45;Ljp/naver/line/android/activity/setting/fragment/bx&#45;&gt;onClick -->
<g id="edge12" class="edge"><title>Ljp/naver/line/android/activity/setting/fragment/SettingsDeleteAccountFragment&#45;&gt;c&#45;&#45;Ljp/naver/line/android/activity/setting/fragment/bx&#45;&gt;onClick</title>
<path fill="none" stroke="black" d="M728.78,-71.6966C728.78,-60.8463 728.78,-46.9167 728.78,-36.1043"/>
</g>
<!-- Ljp/naver/line/android/activity/moremenu/h&#45;&gt;run -->
<g id="node14" class="node"><title>Ljp/naver/line/android/activity/moremenu/h&#45;&gt;run</title>
<ellipse fill="none" stroke="black" cx="2954.78" cy="-90" rx="186.567" ry="18"/>
<text text-anchor="middle" x="2954.78" y="-86.3" font-family="Times,serif" font-size="14.00">Ljp/naver/line/android/activity/moremenu/h&#45;&gt;run</text>
</g>
<!-- Ljp/naver/line/android/activity/moremenu/MoreCategoryListActivity&#45;&gt;a&#45;&#45;Ljp/naver/line/android/activity/moremenu/h&#45;&gt;run -->
<g id="edge15" class="edge"><title>Ljp/naver/line/android/activity/moremenu/MoreCategoryListActivity&#45;&gt;a&#45;&#45;Ljp/naver/line/android/activity/moremenu/h&#45;&gt;run</title>
<path fill="none" stroke="black" d="M1968.25,-149.178C1997.88,-147.393 2028.16,-145.612 2056.78,-144 2368.7,-126.431 2447.11,-129.501 2758.78,-108 2780.08,-106.531 2802.66,-104.766 2824.62,-102.937"/>
</g>
<!-- Ljp/naver/line/android/activity/moremenu/i&#45;&gt;run -->
<g id="node15" class="node"><title>Ljp/naver/line/android/activity/moremenu/i&#45;&gt;run</title>
<ellipse fill="none" stroke="black" cx="1346.78" cy="-90" rx="184.667" ry="18"/>
<text text-anchor="middle" x="1346.78" y="-86.3" font-family="Times,serif" font-size="14.00">Ljp/naver/line/android/activity/moremenu/i&#45;&gt;run</text>
</g>
<!-- Ljp/naver/line/android/activity/moremenu/MoreCategoryListActivity&#45;&gt;a&#45;&#45;Ljp/naver/line/android/activity/moremenu/i&#45;&gt;run -->
<g id="edge16" class="edge"><title>Ljp/naver/line/android/activity/moremenu/MoreCategoryListActivity&#45;&gt;a&#45;&#45;Ljp/naver/line/android/activity/moremenu/i&#45;&gt;run</title>
<path fill="none" stroke="black" d="M1682.07,-145.203C1608.86,-133.368 1509.4,-117.29 1437.85,-105.723"/>
</g>
<!-- Ljp/naver/line/android/activity/moremenu/j&#45;&gt;onClick -->
<g id="node16" class="node"><title>Ljp/naver/line/android/activity/moremenu/j&#45;&gt;onClick</title>
<ellipse fill="none" stroke="black" cx="1749.78" cy="-90" rx="200.365" ry="18"/>
<text text-anchor="middle" x="1749.78" y="-86.3" font-family="Times,serif" font-size="14.00">Ljp/naver/line/android/activity/moremenu/j&#45;&gt;onClick</text>
</g>
<!-- Ljp/naver/line/android/activity/moremenu/MoreCategoryListActivity&#45;&gt;a&#45;&#45;Ljp/naver/line/android/activity/moremenu/j&#45;&gt;onClick -->
<g id="edge17" class="edge"><title>Ljp/naver/line/android/activity/moremenu/MoreCategoryListActivity&#45;&gt;a&#45;&#45;Ljp/naver/line/android/activity/moremenu/j&#45;&gt;onClick</title>
<path fill="none" stroke="black" d="M1772.36,-143.697C1767.71,-132.846 1761.74,-118.917 1757.11,-108.104"/>
</g>
<!-- Ljp/naver/line/android/activity/moremenu/l&#45;&gt;a -->
<g id="node17" class="node"><title>Ljp/naver/line/android/activity/moremenu/l&#45;&gt;a</title>
<ellipse fill="none" stroke="black" cx="2144.78" cy="-90" rx="176.569" ry="18"/>
<text text-anchor="middle" x="2144.78" y="-86.3" font-family="Times,serif" font-size="14.00">Ljp/naver/line/android/activity/moremenu/l&#45;&gt;a</text>
</g>
<!-- Ljp/naver/line/android/activity/moremenu/MoreCategoryListActivity&#45;&gt;a&#45;&#45;Ljp/naver/line/android/activity/moremenu/l&#45;&gt;a -->
<g id="edge18" class="edge"><title>Ljp/naver/line/android/activity/moremenu/MoreCategoryListActivity&#45;&gt;a&#45;&#45;Ljp/naver/line/android/activity/moremenu/l&#45;&gt;a</title>
<path fill="none" stroke="black" d="M1863.98,-144.853C1924.72,-133.204 2006.16,-117.584 2065.69,-106.167"/>
</g>
<!-- Ljp/naver/line/android/activity/moremenu/m&#45;&gt;onClick -->
<g id="node18" class="node"><title>Ljp/naver/line/android/activity/moremenu/m&#45;&gt;onClick</title>
<ellipse fill="none" stroke="black" cx="2544.78" cy="-90" rx="205.264" ry="18"/>
<text text-anchor="middle" x="2544.78" y="-86.3" font-family="Times,serif" font-size="14.00">Ljp/naver/line/android/activity/moremenu/m&#45;&gt;onClick</text>
</g>
<!-- Ljp/naver/line/android/activity/moremenu/MoreCategoryListActivity&#45;&gt;a&#45;&#45;Ljp/naver/line/android/activity/moremenu/m&#45;&gt;onClick -->
<g id="edge19" class="edge"><title>Ljp/naver/line/android/activity/moremenu/MoreCategoryListActivity&#45;&gt;a&#45;&#45;Ljp/naver/line/android/activity/moremenu/m&#45;&gt;onClick</title>
<path fill="none" stroke="black" d="M1931.38,-147.128C2070.33,-134.414 2274.25,-115.754 2408.24,-103.494"/>
</g>
<!-- Lgjx&#45;&gt;a&#45;&#45;Lfvr&#45;&gt;a -->
<g id="edge21" class="edge"><title>Lgjx&#45;&gt;a&#45;&#45;Lfvr&#45;&gt;a</title>
<path fill="none" stroke="black" d="M1052.65,-218.496C1035.02,-206.402 1010.05,-189.267 992.538,-177.246"/>
</g>
<!-- Ljp/naver/line/android/activity/main/v&#45;&gt;run -->
<g id="node22" class="node"><title>Ljp/naver/line/android/activity/main/v&#45;&gt;run</title>
<ellipse fill="none" stroke="black" cx="2231.78" cy="-162" rx="165.971" ry="18"/>
<text text-anchor="middle" x="2231.78" y="-158.3" font-family="Times,serif" font-size="14.00">Ljp/naver/line/android/activity/main/v&#45;&gt;run</text>
</g>
<!-- Ljp/naver/line/android/activity/main/u&#45;&gt;run&#45;&#45;Ljp/naver/line/android/activity/main/v&#45;&gt;run -->
<g id="edge24" class="edge"><title>Ljp/naver/line/android/activity/main/u&#45;&gt;run&#45;&#45;Ljp/naver/line/android/activity/main/v&#45;&gt;run</title>
<path fill="none" stroke="black" d="M1645.61,-221.284C1775.76,-208.343 1984.08,-187.629 2114.15,-174.696"/>
</g>
<!-- Ljp/naver/line/android/model/ac&#45;&gt;b&#45;&#45;Lgjx&#45;&gt;a -->
<g id="edge31" class="edge"><title>Ljp/naver/line/android/model/ac&#45;&gt;b&#45;&#45;Lgjx&#45;&gt;a</title>
<path fill="none" stroke="black" d="M1270.65,-289.831C1229.89,-279.658 1175.49,-265.667 1127.78,-252 1120.41,-249.889 1112.52,-247.486 1105.11,-245.165"/>
</g>
<!-- Ljp/naver/line/android/model/ag&#45;&gt;c&#45;&#45;Lgjx&#45;&gt;a -->
<g id="edge33" class="edge"><title>Ljp/naver/line/android/model/ag&#45;&gt;c&#45;&#45;Lgjx&#45;&gt;a</title>
<path fill="none" stroke="black" d="M914.782,-289.028C954.088,-275.672 1009.02,-257.004 1042.95,-245.475"/>
</g>
<!-- Ljp/naver/line/android/model/ag&#45;&gt;d&#45;&#45;Lgjx&#45;&gt;a -->
<g id="edge35" class="edge"><title>Ljp/naver/line/android/model/ag&#45;&gt;d&#45;&#45;Lgjx&#45;&gt;a</title>
<path fill="none" stroke="black" d="M929.986,-362.967C958.666,-355.005 990.177,-342.734 1014.78,-324 1039.85,-304.908 1057.64,-271.925 1066.77,-251.92"/>
</g>
<!-- Ljp/naver/line/android/model/aj&#45;&gt;b&#45;&#45;Lgjx&#45;&gt;a -->
<g id="edge37" class="edge"><title>Ljp/naver/line/android/model/aj&#45;&gt;b&#45;&#45;Lgjx&#45;&gt;a</title>
<path fill="none" stroke="black" d="M1136.22,-359.871C1122.5,-332.431 1095.75,-278.946 1082.15,-251.748"/>
</g>
</g>
</svg>
