<?xml version="1.0" encoding="UTF-8" standalone="no"?>
<!DOCTYPE svg PUBLIC "-//W3C//DTD SVG 1.1//EN"
 "http://www.w3.org/Graphics/SVG/1.1/DTD/svg11.dtd">
<!-- Generated by graphviz version 2.38.0 (20140413.2041)
 -->
<!-- Title: %3 Pages: 1 -->
<svg width="184pt" height="188pt"
 viewBox="0.00 0.00 184.00 188.00" xmlns="http://www.w3.org/2000/svg" xmlns:xlink="http://www.w3.org/1999/xlink">
<g id="graph0" class="graph" transform="scale(1 1) rotate(0) translate(4 184)">
<title>%3</title>
<polygon fill="white" stroke="none" points="-4,4 -4,-184 179.995,-184 179.995,4 -4,4"/>
<!-- A -->
<g id="node1" class="node"><title>A</title>
<ellipse fill="none" stroke="black" cx="27" cy="-162" rx="27" ry="18"/>
<text text-anchor="middle" x="27" y="-158.3" font-family="Times,serif" font-size="14.00">A</text>
</g>
<!-- B -->
<g id="node2" class="node"><title>B</title>
<ellipse fill="none" stroke="black" cx="27" cy="-90" rx="27" ry="18"/>
<text text-anchor="middle" x="27" y="-86.3" font-family="Times,serif" font-size="14.00">B</text>
</g>
<!-- A&#45;&gt;B -->
<g id="edge1" class="edge"><title>A&#45;&gt;B</title>
<path fill="none" stroke="black" d="M27,-143.697C27,-135.983 27,-126.712 27,-118.112"/>
<polygon fill="black" stroke="black" points="30.5001,-118.104 27,-108.104 23.5001,-118.104 30.5001,-118.104"/>
</g>
<!-- C -->
<g id="node3" class="node"><title>C</title>
<ellipse fill="none" stroke="black" cx="36" cy="-18" rx="27" ry="18"/>
<text text-anchor="middle" x="36" y="-14.3" font-family="Times,serif" font-size="14.00">C</text>
</g>
<!-- B&#45;&gt;C -->
<g id="edge2" class="edge"><title>B&#45;&gt;C</title>
<path fill="none" stroke="black" d="M29.1786,-72.055C30.1698,-64.3456 31.368,-55.0269 32.4817,-46.3642"/>
<polygon fill="black" stroke="black" points="35.975,-46.64 33.7789,-36.2753 29.0322,-45.7473 35.975,-46.64"/>
</g>
<!-- B$1111111 -->
<g id="node4" class="node"><title>B$1111111</title>
<ellipse fill="none" stroke="black" cx="124" cy="-90" rx="51.9908" ry="18"/>
<text text-anchor="middle" x="124" y="-86.3" font-family="Times,serif" font-size="14.00">B$1111111</text>
</g>
<!-- B$1111111&#45;&gt;C -->
<g id="edge3" class="edge"><title>B$1111111&#45;&gt;C</title>
<path fill="none" stroke="black" d="M104.031,-73.1159C91.1811,-62.8941 74.386,-49.5343 60.6986,-38.6466"/>
<polygon fill="black" stroke="black" points="62.6459,-35.7233 52.641,-32.2372 58.2882,-41.2016 62.6459,-35.7233"/>
</g>
<!-- CCCC -->
<g id="node5" class="node"><title>CCCC</title>
<ellipse fill="none" stroke="black" cx="124" cy="-18" rx="34.394" ry="18"/>
<text text-anchor="middle" x="124" y="-14.3" font-family="Times,serif" font-size="14.00">CCCC</text>
</g>
<!-- B$1111111&#45;&gt;CCCC -->
<g id="edge4" class="edge"><title>B$1111111&#45;&gt;CCCC</title>
<path fill="none" stroke="black" d="M124,-71.6966C124,-63.9827 124,-54.7125 124,-46.1124"/>
<polygon fill="black" stroke="black" points="127.5,-46.1043 124,-36.1043 120.5,-46.1044 127.5,-46.1043"/>
</g>
</g>
</svg>
